<?xml version="1.0" encoding="UTF-8"?>
<svg id="Layer_2" data-name="Layer 2" xmlns="http://www.w3.org/2000/svg" viewBox="0 0 439.17 247.03">
  <defs>
    <style>
      .cls-1 {
        fill: #09d639;
        stroke-width: 0px;
      }
    </style>
  </defs>
  <g id="Layer_1-2" data-name="Layer 1">
    <g>
      <path class="cls-1" d="m436.71,121.66c-10.24-46.05-51.34-80.49-100.47-80.49h-34.32V0h-164.69v41.17h-34.31C53.8,41.17,12.7,75.61,2.46,121.66c-1.61,7.22-2.46,14.74-2.46,22.44,0,17.42,4.32,33.82,11.96,48.2,17.29,32.56,51.54,54.73,90.97,54.73,4.83,0,9.59-.33,14.26-.99,24.91-3.44,46.95-15.79,62.82-33.74,3.18-3.58,6.1-7.38,8.75-11.38,4.63-6.95,8.41-14.5,11.24-22.51h39.18c2.83,8,6.61,15.56,11.24,22.51,2.64,4,5.57,7.8,8.75,11.38,15.87,17.94,37.92,30.3,62.82,33.74,4.65.66,9.42.99,14.26.99,39.43,0,73.68-22.18,90.97-54.73,7.64-14.38,11.96-30.78,11.96-48.2,0-7.7-.85-15.22-2.46-22.44Zm-193.61-26.29l5.34,16.44c2.09,6.44-5.28,11.8-10.76,7.82l-13.99-10.16c-2.45-1.78-5.77-1.78-8.22,0l-13.99,10.16c-5.48,3.98-12.85-1.38-10.76-7.82l5.34-16.44c.94-2.88-.09-6.04-2.54-7.82l-13.99-10.16c-5.48-3.98-2.66-12.65,4.11-12.65h17.29c3.03,0,5.71-1.95,6.65-4.83l5.34-16.44c2.09-6.44,11.21-6.44,13.3,0l5.34,16.44c.94,2.88,3.62,4.83,6.65,4.83h17.29c6.77,0,9.59,8.67,4.11,12.65l-13.99,10.16c-2.45,1.78-3.48,4.94-2.54,7.82Zm-126.45,122.96c-4.45.83-9.04,1.26-13.72,1.26-30.02,0-56-17.61-68.14-43.05-4.71-9.83-7.34-20.83-7.34-32.44,0-41.61,33.86-75.48,75.48-75.48h34.31v11.87c0,36.99,12.06,71.15,32.46,98.78-10.6,20.07-30.01,34.81-53.04,39.06Zm287.73-41.8c-12.14,25.44-38.12,43.05-68.14,43.05-4.68,0-9.27-.43-13.72-1.26-23.04-4.24-42.44-18.99-53.06-39.06,20.4-27.63,32.46-61.79,32.46-98.78v-11.87h34.32c41.62,0,75.48,33.87,75.48,75.48,0,11.6-2.63,22.61-7.34,32.44Z"/>
      <path class="cls-1" d="m363.69,102.93c-11.37,0-20.59,9.22-20.59,20.59h0c0,11.37,9.22,20.59,20.59,20.59s20.59-9.22,20.59-20.59h0c0-11.37-9.22-20.59-20.59-20.59Z"/>
      <rect class="cls-1" x="301.92" y="144.11" width="41.18" height="41.18" rx="20.59" ry="20.59"/>
      <path class="cls-1" d="m123.52,130.38h-13.73v-13.73h0c0-7.58-6.15-13.73-13.73-13.73s-13.73,6.15-13.73,13.73h0v13.73h-13.73c-7.58,0-13.73,6.15-13.73,13.73s6.15,13.73,13.73,13.73h13.73v13.73h0c0,7.58,6.15,13.73,13.73,13.73s13.73-6.15,13.73-13.73h0v-13.73h13.73c7.58,0,13.73-6.15,13.73-13.73s-6.15-13.73-13.73-13.73Z"/>
    </g>
  </g>
</svg>